#Modified
#Groups: 2
#Vertices: 133
#133  
#Normals: 139
#139  
#TexCoords: 80
#80  
#Faces: 261
#261  
# Blender v2.71 (sub 0) OBJ File: ''
# www.blender.org
mtllib Mountain.mtl
o Mountain
v -0.135648 -0.483385 0.248287
v -0.152616 -0.465470 0.279423
v -0.245150 -0.484329 0.154708
v 0.001241 -0.447841 0.000676
v -0.290586 -0.483591 0.016476
v -0.263807 -0.482624 -0.126546
v -0.171438 -0.481669 -0.238974
v -0.036329 -0.480961 -0.292997
v -0.002809 1.027696 0.009887
v -0.146509 1.018465 0.270023
v -0.076458 1.018485 0.297484
v 0.124385 1.065498 -0.317979
v 0.265090 1.065251 -0.216480
v 0.265336 1.040573 -0.216782
v -0.047813 1.065158 -0.339141
v 0.124538 1.040821 -0.318349
v -0.202133 -0.413568 0.370288
v -0.312443 -0.449471 0.197892
v -0.177021 -0.449888 0.324197
v -0.188541 -0.462188 -0.262153
v -0.040098 -0.461410 -0.321507
v -0.356555 -0.413093 0.226262
v -0.370266 -0.448532 0.021974
v -0.269527 -0.465110 0.170382
v -0.319447 -0.464299 0.018507
v -0.290025 -0.463237 -0.138628
v -0.336186 -0.447302 -0.160040
v -0.218634 -0.446086 -0.303119
v 0.108094 -0.480675 -0.275249
v -0.046692 -0.445185 -0.371870
v 0.137105 -0.444822 -0.349284
v 0.118578 -0.461096 -0.302008
v 0.287289 -0.445086 -0.240947
v 0.248235 -0.461324 -0.208479
v 0.288507 -0.481533 -0.058673
v 0.226104 -0.480883 -0.190122
v 0.366704 -0.445912 -0.073663
v 0.316796 -0.462037 -0.064058
v 0.279865 -0.482463 0.086577
v 0.307301 -0.463060 0.095527
v 0.355705 -0.447096 0.111187
v 0.257015 -0.448345 0.267871
v 0.222098 -0.464138 0.230797
v 0.074207 -0.482067 0.277047
v 0.202316 -0.483444 0.209697
v -0.077602 -0.465448 0.308829
v 0.082266 -0.465005 0.308287
v 0.095262 -0.447162 0.358501
v 0.405342 -0.410384 0.127389
v 0.292803 -0.411809 0.306059
v -0.069402 -0.482075 0.276509
v -0.088513 1.060776 0.344910
v -0.088502 1.036095 0.344979
v 0.084979 1.061255 0.344322
v 0.085713 1.035512 0.346711
v -0.169918 1.060752 0.312998
v -0.169962 1.036071 0.313047
v -0.084801 1.060776 0.330245
v -0.162676 1.060753 0.299717
v -0.296919 1.036462 0.194635
v -0.296793 1.061142 0.194664
v 0.329190 1.063367 0.113431
v 0.236953 1.037518 0.260241
v 0.329477 1.038688 0.113348
v -0.255690 1.018800 0.168193
v -0.335872 1.061969 0.028846
v -0.284049 1.061127 0.186516
v -0.350966 1.062022 0.029848
v -0.351129 1.037343 0.029710
v -0.302308 1.019557 0.026363
v -0.305328 1.063071 -0.134285
v -0.319038 1.063174 -0.140679
v -0.319179 1.038496 -0.140929
v -0.274832 1.020549 -0.120380
v -0.199971 1.064161 -0.262522
v -0.208904 1.064313 -0.274729
v -0.041435 1.022255 -0.291164
v 0.118865 1.065294 -0.303898
v -0.045866 1.064968 -0.324140
v -0.180059 1.021529 -0.235735
v -0.208973 1.039635 -0.275069
v 0.106747 1.022549 -0.272954
v 0.253468 1.065057 -0.206800
v 0.327325 -0.408092 -0.274153
v 0.107339 -0.418635 0.405364
v 0.227829 1.022336 -0.185611
v 0.324645 1.064317 -0.056869
v 0.339788 1.039798 -0.059951
v 0.291855 1.021670 -0.050742
v 0.314788 1.063255 0.108804
v 0.339494 1.064476 -0.059754
v 0.282988 1.020715 0.098289
v 0.226334 1.062136 0.249235
v 0.203422 1.019707 0.224612
v 0.081168 1.061235 0.329682
v 0.236727 1.062197 0.260227
v -0.053516 -0.408205 -0.423445
v 0.156070 -0.407791 -0.397690
v 0.072837 1.018898 0.296978
v -0.422491 -0.412021 0.025660
v -0.249584 -0.409233 -0.345048
v -0.047775 1.040480 -0.339523
v 0.417884 -0.409034 -0.083396
v -0.383629 -0.410619 -0.181892
v -0.090357 -0.447676 0.359130
v -0.102274 -0.419215 0.406074
v -0.105893 0.898373 0.414314
v 0.088563 0.983526 0.356782
v -0.091582 0.983027 0.357392
v 0.103727 0.898953 0.413605
v 0.085104 1.036576 0.344391
v 0.287075 0.900090 0.311998
v 0.249410 0.977394 0.272867
v -0.204251 0.898343 0.375758
v -0.311828 0.976284 0.203899
v -0.423001 0.899879 0.033644
v -0.357545 0.898815 0.232782
v -0.368817 0.977209 0.030518
v -0.335229 0.978421 -0.148868
v -0.251355 0.902647 -0.334358
v -0.384422 0.901271 -0.172393
v 0.279248 0.980606 -0.228609
v 0.131232 0.980866 -0.335381
v 0.321346 0.903780 -0.263981
v 0.151340 0.904079 -0.386616
v 0.411243 0.902844 -0.074616
v -0.178362 0.975873 0.328379
v -0.056718 0.903668 -0.412184
v 0.398793 0.901504 0.134632
v -0.219374 0.979620 -0.289883
v -0.049913 0.980508 -0.357642
v 0.357517 0.979791 -0.063738
v 0.346677 0.978625 0.118444
vt 0.853392 0.783047
vt 0.853394 0.783069
vt 0.853315 0.783040
vt 0.853374 0.782896
vt 0.853219 0.782924
vt 0.853224 0.782846
vt 0.853265 0.782781
vt 0.853312 0.782747
vt 0.853351 0.782737
vt 0.853510 0.783046
vt 0.853517 0.783054
vt 0.853322 0.783094
vt 0.853214 0.783025
vt 0.853233 0.782745
vt 0.853479 0.782780
vt 0.853512 0.782745
vt 0.853567 0.782831
vt 0.853574 0.782932
vt 0.853545 0.782927
vt 0.853226 0.783054
vt 0.853556 0.783045
vt 0.853144 0.782820
vt 0.853136 0.782939
vt 0.134310 0.885038
vt 0.211291 0.974447
vt 0.136753 0.973434
vt 0.210049 0.885805
vt 0.119114 -0.000208
vt 0.194474 0.000554
vt 0.211203 0.997642
vt 0.287978 0.885620
vt 0.289465 0.970931
vt 0.137202 0.996539
vt 0.289506 0.997572
vt 0.210860 0.998962
vt 0.096974 0.885369
vt 0.997622 0.972676
vt 0.910416 0.889222
vt 0.993480 0.888416
vt 0.998984 1.000063
vt 0.915880 0.972377
vt 0.100621 0.996958
vt 0.003683 0.997768
vt 0.004754 0.971622
vt 0.835536 0.971711
vt 0.752298 0.888026
vt 0.833238 0.888154
vt 0.596399 0.998502
vt 0.517517 0.971108
vt 0.596049 0.971452
vt 0.516487 0.885371
vt 0.594120 0.885619
vt 0.438121 0.885077
vt 0.099690 0.970571
vt 0.672978 0.885795
vt 0.678769 0.000693
vt 0.758119 0.000213
vt 0.598224 0.000252
vt 0.361545 0.884959
vt 0.357072 0.000794
vt 0.437361 0.000679
vt 0.079853 0.000492
vt 0.517750 0.000498
vt 0.916143 0.001216
vt 0.994172 0.002414
vt 0.002123 0.885051
vt 0.835592 0.998999
vt 0.752070 0.974183
vt 0.750857 1.001319
vt 0.673955 0.971756
vt 0.673621 0.998854
vt 0.517226 0.998103
vt 0.440275 0.997620
vt 0.439981 0.970705
vt 0.003949 -0.000183
vt 0.916673 0.999830
vt 0.840063 0.000507
vt 0.276887 0.000592
vt 0.365198 0.997208
vt 0.364287 0.970428
vn -0.293000 -0.889000 0.351800
vn 0.088400 -0.991700 -0.093500
vn 0.119100 -0.991900 -0.044400
vn 0.122400 -0.992300 0.016200
vn 0.096300 -0.992800 0.070700
vn 0.047600 -0.993200 0.105900
vn -0.002700 1.000000 0.006500
vn 0.249100 0.886900 -0.389000
vn 0.081100 0.886900 -0.454800
vn 0.272100 0.665900 -0.694600
vn 0.574800 0.665400 -0.476200
vn 0.759000 0.158200 -0.631600
vn -0.098400 0.665200 -0.740200
vn 0.360300 0.158900 -0.919200
vn -0.476600 -0.437400 0.762500
vn -0.386200 -0.889900 0.242900
vn -0.239400 -0.895600 0.375000
vn -0.241700 -0.909000 -0.339400
vn -0.050700 -0.908000 -0.415800
vn -0.056500 -0.917400 -0.393900
vn -0.758400 -0.437700 0.483000
vn -0.457800 -0.888700 0.025000
vn -0.345900 -0.912800 0.217100
vn -0.553900 -0.832000 0.031700
vn -0.472400 -0.833300 0.287100
vn -0.410100 -0.911700 0.021700
vn -0.372300 -0.910400 -0.180500
vn -0.415600 -0.887200 -0.200500
vn -0.269900 -0.885600 -0.377800
vn 0.106900 -0.956300 -0.272000
vn -0.056900 -0.884500 -0.462900
vn 0.170800 -0.884100 -0.434900
vn 0.153400 -0.907600 -0.390700
vn 0.356800 -0.884400 -0.300700
vn 0.320200 -0.907900 -0.270300
vn 0.282700 -0.957300 -0.060300
vn 0.222100 -0.956600 -0.188700
vn 0.455200 -0.885400 -0.093500
vn 0.408400 -0.908800 -0.084500
vn 0.274000 -0.958300 0.081200
vn 0.396200 -0.910200 0.120800
vn 0.441600 -0.886900 0.135500
vn 0.317900 -0.888100 0.332000
vn 0.281500 -0.913100 0.295000
vn 0.056600 -0.973100 0.223300
vn 0.191400 -0.958800 0.209700
vn -0.068100 -0.925000 0.373800
vn 0.097200 -0.922900 0.372400
vn 0.115500 -0.900200 0.419700
vn 0.859600 -0.431900 0.273000
vn 0.617500 -0.433900 0.656100
vn -0.030400 -0.978100 0.205900
vn -0.168200 -0.935900 0.309500
vn -0.137900 0.668000 0.731300
vn -0.176900 0.127300 0.976000
vn 0.175500 0.689500 0.702700
vn 0.179600 -0.357800 0.916300
vn -0.396100 0.667900 0.630000
vn -0.528200 0.144400 0.836800
vn 0.071900 0.920900 -0.383200
vn 0.207100 0.920900 -0.330100
vn -0.833100 0.146600 0.533300
vn -0.634100 0.656500 0.408400
vn 0.712800 0.661300 0.233600
vn 0.679300 0.145100 0.719400
vn 0.940600 0.152900 0.303200
vn 0.402400 0.879700 -0.253300
vn 0.376800 0.926100 -0.019400
vn 0.317800 0.927000 -0.199000
vn -0.750700 0.658400 0.053800
vn -0.986600 0.149100 0.066300
vn 0.477000 0.878500 -0.026300
vn 0.342000 0.924800 0.166500
vn -0.682000 0.660900 -0.313100
vn -0.896100 0.152300 -0.416800
vn 0.433100 0.876900 0.208600
vn 0.222000 0.923600 0.312600
vn -0.445000 0.663300 -0.601600
vn 0.059500 0.874100 0.482100
vn -0.141300 0.922300 0.359700
vn 0.046400 0.922600 0.382800
vn 0.281400 0.875300 0.393300
vn -0.584100 0.155600 -0.796600
vn -0.177800 0.873600 0.452900
vn -0.294700 0.922500 0.249100
vn 0.693900 -0.427100 -0.579700
vn 0.224000 -0.471000 0.853200
vn -0.371600 0.874000 0.313000
vn -0.375700 0.923400 0.078200
vn 0.969800 0.156000 -0.187500
vn -0.474100 0.875100 0.097100
vn -0.364500 0.924600 -0.110500
vn 0.735000 0.663700 -0.139000
vn -0.459900 0.876600 -0.141500
vn -0.263700 0.925900 -0.270500
vn -0.332500 0.878300 -0.343600
vn -0.098300 0.926900 -0.362100
vn 0.516300 0.660100 0.545500
vn -0.114800 -0.427300 -0.896800
vn 0.330200 -0.426400 -0.842100
vn -0.123400 0.879600 -0.459400
vn -0.898400 -0.435400 0.056900
vn -0.531200 -0.429500 -0.730300
vn -0.127600 0.157900 -0.979200
vn 0.886200 -0.429100 -0.174600
vn -0.815900 -0.432400 -0.383800
vn -0.058900 -0.998100 -0.016300
vn -0.069800 -0.904400 0.421000
vn -0.154700 -0.478000 0.864600
vn -0.326900 -0.828300 -0.455000
vn -0.058200 -0.981600 0.182100
vn -0.502900 -0.830100 -0.240800
vn -0.178000 0.285600 0.941600
vn 0.226400 0.421400 0.878100
vn -0.159600 0.412000 0.897100
vn 0.240600 0.283800 0.928200
vn 0.165600 -0.354200 0.920400
vn 0.656300 0.287800 0.697400
vn 0.610400 0.447100 0.653900
vn -0.509100 0.286800 0.811500
vn -0.754700 0.442300 0.484500
vn -0.955400 0.287800 0.065100
vn -0.806800 0.285400 0.517200
vn -0.893600 0.444600 0.062000
vn -0.811700 0.447600 -0.375200
vn -0.565800 0.294100 -0.770300
vn -0.867900 0.291000 -0.402600
vn 0.685900 0.452900 -0.569600
vn 0.325100 0.453500 -0.829800
vn 0.734300 0.296700 -0.610500
vn 0.348400 0.297300 -0.888900
vn 0.938400 0.294500 -0.180600
vn -0.477900 0.439100 0.760800
vn -0.123900 0.296400 -0.947000
vn 0.910100 0.291500 0.294400
vn -0.529300 0.450500 -0.718900
vn -0.116300 0.452700 -0.884100
vn 0.876600 0.450900 -0.167700
vn 0.850200 0.448000 0.276300
usemtl Default.002
s off
f 1/1/1 2/2/1 3/3/1
f 4/4/2 1/1/2 3/3/2
f 5/3/3 4/4/3 3/3/3
f 6/5/4 4/4/4 5/3/4
f 7/6/5 4/4/5 6/5/5
f 8/7/6 4/4/6 7/6/6
s 1
f 9/4/7 10/8/8 11/9/9
f 12/2/10 13/10/11 14/11/12
f 15/12/13 12/2/10 16/2/14
f 17/2/15 18/12/16 19/2/17
f 20/6/18 21/7/19 8/7/20
f 22/12/21 23/13/22 18/12/16
f 24/12/23 5/3/24 3/3/25
f 17/2/15 22/12/21 18/12/16
f 18/12/16 25/13/26 24/12/23
f 23/13/22 26/5/27 25/13/26
f 18/12/16 23/13/22 25/13/26
f 27/5/28 28/6/29 20/6/18
f 27/5/28 20/6/18 26/5/27
f 21/7/19 29/8/30 8/7/20
f 28/6/29 30/14/31 21/7/19
f 28/6/29 21/7/19 20/6/18
f 30/14/31 31/8/32 32/8/33
f 30/14/31 32/8/33 21/7/19
f 31/8/32 33/9/34 34/9/35
f 31/8/32 34/9/35 32/8/33
f 34/9/35 35/15/36 36/9/37
f 33/9/34 37/16/38 38/15/39
f 33/9/34 38/15/39 34/9/35
f 38/15/39 39/15/40 35/15/36
f 38/15/39 40/15/41 39/15/40
f 37/16/38 41/17/42 40/15/41
f 37/16/38 40/15/41 38/15/39
f 41/17/42 42/18/43 43/19/44
f 41/17/42 43/19/44 40/15/41
f 43/19/44 44/10/45 45/19/46
f 46/2/47 47/10/48 48/10/49
f 49/17/50 50/18/51 42/18/43
f 44/10/45 47/10/48 51/1/52
f 42/18/43 48/10/49 47/10/48
f 42/18/43 47/10/48 43/19/44
f 46/2/47 2/2/53 51/1/52
f 40/15/41 45/19/46 39/15/40
f 52/8/54 53/8/55 54/16/56
f 55/16/57 54/16/56 53/8/55
f 52/8/54 56/8/58 57/8/59
f 58/8/60 56/8/58 52/8/54
f 11/9/9 59/8/61 58/8/60
f 11/9/9 10/8/8 59/8/61
f 56/8/58 60/6/62 57/8/59
f 56/8/58 61/6/63 60/6/62
f 62/18/64 63/15/65 64/18/66
f 65/6/67 66/5/68 67/6/69
f 10/8/8 67/6/69 59/8/61
f 60/6/62 68/5/70 69/5/71
f 70/5/72 71/13/73 66/5/68
f 9/4/7 65/6/67 10/8/8
f 10/8/8 65/6/67 67/6/69
f 9/4/7 70/5/72 65/6/67
f 68/5/70 72/13/74 73/13/75
f 67/6/69 68/5/70 61/6/63
f 65/6/67 70/5/72 66/5/68
f 49/17/50 42/18/43 41/17/42
f 74/5/76 75/13/77 71/13/73
f 66/5/68 72/13/74 68/5/70
f 71/13/73 76/13/78 72/13/74
f 9/4/7 74/5/76 70/5/72
f 70/5/72 74/5/76 71/13/73
f 77/3/79 78/2/80 79/12/81
f 9/4/7 80/3/82 74/5/76
f 74/5/76 80/3/82 75/13/77
f 72/13/74 81/20/83 73/13/75
f 82/1/84 83/10/85 78/2/80
f 9/4/7 77/3/79 80/3/82
f 80/3/82 77/3/79 79/12/81
f 84/9/86 37/16/38 33/9/34
f 50/18/51 85/21/87 48/10/49
f 86/10/88 87/10/89 83/10/85
f 9/4/7 82/1/84 77/3/79
f 77/3/79 82/1/84 78/2/80
f 13/10/11 88/21/90 14/11/12
f 9/4/7 86/10/88 82/1/84
f 89/19/91 90/18/92 87/10/89
f 82/1/84 86/10/88 83/10/85
f 79/12/81 12/2/10 15/12/13
f 80/3/82 79/12/81 75/13/77
f 75/13/77 79/12/81 15/12/13
f 13/10/11 91/21/93 88/21/90
f 92/19/94 93/15/95 90/18/92
f 86/10/88 89/19/91 87/10/89
f 9/4/7 89/19/91 86/10/88
f 78/2/80 13/10/11 12/2/10
f 91/21/93 62/18/64 64/18/66
f 75/13/77 15/12/13 76/13/78
f 83/10/85 91/21/93 13/10/11
f 94/15/96 95/9/97 93/15/95
f 9/4/7 92/19/94 89/19/91
f 89/19/91 92/19/94 90/18/92
f 96/15/98 55/16/57 63/15/65
f 93/15/95 54/9/56 96/15/98
f 9/4/7 94/15/96 92/19/94
f 96/15/98 54/16/56 55/16/57
f 62/18/64 96/15/98 63/15/65
f 87/10/89 62/18/64 91/21/93
f 67/6/69 66/5/68 68/5/70
f 92/19/94 94/15/96 93/15/95
f 97/14/99 98/8/100 31/8/32
f 94/15/96 99/9/101 95/9/97
f 72/13/74 76/13/78 81/20/83
f 100/13/102 27/5/28 23/13/22
f 101/22/103 30/14/31 28/6/29
f 76/13/78 102/12/104 81/20/83
f 97/14/99 31/8/32 30/14/31
f 79/12/81 78/2/80 12/2/10
f 103/16/105 41/17/42 37/16/38
f 76/13/78 15/12/13 102/12/104
f 59/8/61 61/6/63 56/8/58
f 50/18/51 48/10/49 42/18/43
f 66/5/68 71/13/73 72/13/74
f 98/8/100 84/9/86 33/9/34
f 98/8/100 33/9/34 31/8/32
f 103/16/105 49/17/50 41/17/42
f 12/2/10 14/11/12 16/2/14
f 52/8/54 95/9/97 58/8/60
f 91/21/93 64/18/66 88/21/90
f 90/18/92 96/15/98 62/18/64
f 101/22/103 97/14/99 30/14/31
f 104/23/106 28/6/29 27/5/28
f 104/23/106 101/22/103 28/6/29
f 44/10/45 51/1/52 4/4/107
f 51/1/52 47/10/48 46/2/47
f 46/2/47 48/10/49 105/2/108
f 19/2/17 18/12/16 24/12/23
f 105/2/108 2/2/53 46/2/47
f 105/2/108 85/21/87 106/11/109
f 21/7/19 32/8/33 29/8/30
f 48/10/49 85/21/87 105/2/108
f 71/13/73 75/13/77 76/13/78
f 15/12/13 16/2/14 102/12/104
f 68/5/70 73/13/75 69/5/71
f 78/2/80 83/10/85 13/10/11
f 9/4/7 99/9/101 94/15/96
f 52/8/54 57/8/59 53/8/55
f 54/9/56 95/9/97 52/8/54
f 87/10/89 90/18/92 62/18/64
f 95/9/97 99/9/101 58/8/60
f 58/8/60 99/9/101 11/9/9
f 84/9/86 103/16/105 37/16/38
f 100/13/102 104/23/106 27/5/28
f 93/15/95 95/9/97 54/9/56
f 58/8/60 59/8/61 56/8/58
f 83/10/85 87/10/89 91/21/93
f 106/11/109 19/2/17 105/2/108
f 106/11/109 17/2/15 19/2/17
f 22/12/21 100/13/102 23/13/22
f 20/6/18 8/7/20 7/6/110
f 105/2/108 19/2/17 2/2/53
f 23/13/22 27/5/28 26/5/27
f 19/2/17 24/12/23 2/2/53
f 43/19/44 47/10/48 44/10/45
f 2/2/53 1/1/111 51/1/52
f 2/2/53 24/12/23 3/3/25
f 26/5/27 7/6/110 6/5/112
f 25/13/26 6/5/112 5/3/24
f 25/13/26 26/5/27 6/5/112
f 26/5/27 20/6/18 7/6/110
f 40/15/41 43/19/44 45/19/46
f 34/9/35 38/15/39 35/15/36
f 24/12/23 25/13/26 5/3/24
f 32/8/33 34/9/35 36/9/37
f 32/8/33 36/9/37 29/8/30
f 1/1/111 4/4/107 51/1/52
f 44/10/45 4/4/107 45/19/46
f 45/19/46 4/4/107 39/15/40
f 39/15/40 4/4/107 35/15/36
f 35/15/36 4/4/107 36/9/37
f 36/9/37 4/4/107 29/8/30
f 29/8/30 4/4/107 8/7/20
f 9/4/7 11/9/9 99/9/101
f 59/8/61 67/6/69 61/6/63
f 61/6/63 68/5/70 60/6/62
f 90/18/92 93/15/95 96/15/98
usemtl Default.001
f 107/24/113 108/25/114 109/26/115
f 107/24/113 110/27/116 108/25/114
f 106/28/109 85/29/87 110/27/116
f 109/26/115 108/25/114 111/30/117
f 112/31/118 110/27/116 85/29/87
f 106/28/109 110/27/116 107/24/113
f 113/32/119 108/25/114 110/27/116
f 109/26/115 111/30/117 53/33/55
f 108/25/114 63/34/65 111/30/117
f 63/34/65 55/35/57 111/30/117
f 109/26/115 114/36/120 107/24/113
f 115/37/121 116/38/122 117/39/123
f 60/40/62 118/41/124 115/37/121
f 57/42/59 60/43/62 115/44/121
f 119/45/125 120/46/126 121/47/127
f 16/48/14 122/49/128 123/50/129
f 123/50/129 122/49/128 124/51/130
f 123/50/129 124/51/130 125/52/131
f 122/49/128 126/53/132 124/51/130
f 53/33/55 127/54/133 109/26/115
f 120/46/126 128/55/134 97/56/99
f 120/46/126 97/56/99 101/57/103
f 128/55/134 125/52/131 98/58/100
f 126/53/132 129/59/135 49/60/50
f 126/53/132 49/60/50 103/61/105
f 107/24/113 17/62/15 106/28/109
f 128/55/134 98/58/100 97/56/99
f 125/52/131 124/51/130 84/63/86
f 125/52/131 84/63/86 98/58/100
f 117/39/123 100/64/102 22/65/21
f 53/33/55 57/42/59 127/54/133
f 127/54/133 117/66/123 114/36/120
f 117/39/123 116/38/122 100/64/102
f 73/67/75 130/68/136 119/45/125
f 73/67/75 81/69/83 130/68/136
f 81/69/83 131/70/137 130/68/136
f 102/71/104 16/48/14 123/50/129
f 102/71/104 123/50/129 131/70/137
f 14/72/12 88/73/90 132/74/138
f 113/32/119 110/27/116 112/31/118
f 119/45/125 130/68/136 120/46/126
f 114/36/120 117/66/123 22/75/21
f 127/54/133 115/44/121 117/66/123
f 118/41/124 121/47/127 116/38/122
f 121/47/127 120/46/126 101/57/103
f 69/76/71 73/67/75 119/45/125
f 124/51/130 126/53/132 103/61/105
f 116/38/122 121/47/127 104/77/106
f 69/76/71 119/45/125 118/41/124
f 118/41/124 119/45/125 121/47/127
f 129/59/135 112/31/118 50/78/51
f 64/79/66 63/34/65 113/32/119
f 130/68/136 131/70/137 128/55/134
f 130/68/136 128/55/134 120/46/126
f 81/69/83 102/71/104 131/70/137
f 129/59/135 50/78/51 49/60/50
f 14/72/12 132/74/138 122/49/128
f 57/42/59 115/44/121 127/54/133
f 109/26/115 127/54/133 114/36/120
f 131/70/137 125/52/131 128/55/134
f 131/70/137 123/50/129 125/52/131
f 116/38/122 104/77/106 100/64/102
f 122/49/128 132/74/138 126/53/132
f 16/48/14 14/72/12 122/49/128
f 132/74/138 129/59/135 126/53/132
f 112/31/118 85/29/87 50/78/51
f 133/80/139 112/31/118 129/59/135
f 124/51/130 103/61/105 84/63/86
f 88/73/90 64/79/66 133/80/139
f 132/74/138 133/80/139 129/59/135
f 115/37/121 118/41/124 116/38/122
f 114/36/120 22/75/21 17/62/15
f 107/24/113 114/36/120 17/62/15
f 60/40/62 69/76/71 118/41/124
f 63/34/65 108/25/114 113/32/119
f 64/79/66 113/32/119 133/80/139
f 133/80/139 113/32/119 112/31/118
f 88/73/90 133/80/139 132/74/138
f 121/47/127 101/57/103 104/77/106
